# xmcd
# Copyright (C) 1995-1998 Ti Kan
#
# Track frame offsets:
#       150
#       16632
#       30471
#       44510
#       65815
#       78462
#       93334
#       109452
#       123253
#       138215
#       153846
#       180305
#
# Disc length: 3208 seconds
#
# Revision: 0
# Processed by: cddbd v1.5.2PL0 Copyright (c) Steve Scherf et al.
# Submitted via: CD-Import v1.0
#
DISCID=900c860c
DTITLE=Bravery - The Bravery
DYEAR=2005
DGENRE=
TTITLE0=An Honest Mistake
TTITLE1=No Brakes
TTITLE2=Fearless
TTITLE3=Tyrant
TTITLE4=Give In
TTITLE5=Swollen Summer
TTITLE6=Public Service Announcement
TTITLE7=Out Of Line
TTITLE8=Unconditional
TTITLE9=The Ring Song
TTITLE10=Rites Of Spring
TTITLE11=Data Track
EXTD=
EXTT0=
EXTT1=
EXTT2=
EXTT3=
EXTT4=
EXTT5=
EXTT6=
EXTT7=
EXTT8=
EXTT9=
EXTT10=
EXTT11=
PLAYORDER=
